<?xml version="1.0" standalone="no"?>
<!DOCTYPE svg PUBLIC "-//W3C//DTD SVG 20010904//EN"
 "http://www.w3.org/TR/2001/REC-SVG-20010904/DTD/svg10.dtd">
<svg version="1.0" xmlns="http://www.w3.org/2000/svg"
 width="512.000000pt" height="512.000000pt" viewBox="0 0 512.000000 512.000000"
 preserveAspectRatio="xMidYMid meet">
<metadata>
Created by potrace 1.11, written by Peter Selinger 2001-2013
</metadata>
<g transform="translate(0.000000,512.000000) scale(0.100000,-0.100000)"
fill="#000000" stroke="none">
<path d="M275 5100 c-115 -37 -219 -142 -255 -259 -20 -62 -20 -96 -20 -1881
0 -1785 0 -1819 20 -1881 23 -76 77 -149 145 -201 102 -77 49 -72 915 -78
l775 -5 350 -397 c192 -218 352 -397 355 -397 3 0 163 179 355 397 l350 397
775 5 c866 6 813 1 915 78 68 52 122 125 145 201 20 62 20 96 20 1881 0 1785
0 1819 -20 1881 -37 119 -140 222 -259 259 -62 20 -96 20 -2285 19 -2164 0
-2223 -1 -2281 -19z m4547 -142 c56 -27 103 -73 129 -126 l24 -47 0 -1825 c0
-1663 -1 -1828 -16 -1861 -25 -53 -74 -104 -127 -130 l-47 -24 -785 -5 c-766
-5 -786 -6 -812 -25 -15 -11 -160 -171 -323 -355 -163 -184 -300 -335 -305
-335 -4 0 -142 151 -305 335 -163 184 -308 344 -323 355 -26 19 -46 20 -812
25 l-785 5 -47 24 c-53 26 -102 77 -127 130 -15 33 -16 198 -16 1861 l0 1825
24 47 c35 73 91 116 176 138 17 5 1022 7 2235 7 2076 -2 2207 -3 2242 -19z"/>
<path d="M840 4415 c0 -2 -23 -133 -51 -291 -28 -160 -47 -290 -42 -295 5 -5
266 -10 580 -11 l571 -3 -504 -1035 c-670 -1373 -621 -1270 -603 -1281 8 -5
145 -8 318 -6 l304 2 714 1452 c393 799 712 1457 708 1462 -6 11 -1995 17
-1995 6z"/>
<path d="M3573 4398 c-35 -40 -987 -1310 -1047 -1397 -148 -217 -219 -434
-220 -671 0 -179 42 -318 140 -466 160 -242 403 -367 719 -367 320 -1 591 111
842 347 162 153 265 309 327 496 67 202 81 401 40 569 -22 89 -90 232 -148
308 -121 160 -323 281 -526 314 l-68 12 319 425 c250 333 316 428 308 439 -9
10 -77 13 -338 13 -327 0 -328 0 -348 -22z m23 -1498 c152 -74 219 -250 165
-428 -71 -234 -324 -401 -548 -362 -115 20 -191 73 -243 171 -107 200 12 485
250 603 93 45 144 56 239 51 57 -3 88 -11 137 -35z"/>
</g>
</svg>
